<mxfile host="Electron" agent="Mozilla/5.0 (Macintosh; Intel Mac OS X 10_15_7) AppleWebKit/537.36 (KHTML, like Gecko) draw.io/28.0.4 Chrome/138.0.7204.97 Electron/37.2.1 Safari/537.36" version="28.0.4">
  <diagram id="C5RBs43oDa-KdzZeNtuy" name="Page-1">
    <mxGraphModel dx="1428" dy="1036" grid="1" gridSize="10" guides="1" tooltips="1" connect="1" arrows="1" fold="1" page="1" pageScale="1" pageWidth="350" pageHeight="500" math="0" shadow="0">
      <root>
        <mxCell id="WIyWlLk6GJQsqaUBKTNV-0" />
        <mxCell id="WIyWlLk6GJQsqaUBKTNV-1" parent="WIyWlLk6GJQsqaUBKTNV-0" />
        <mxCell id="WIyWlLk6GJQsqaUBKTNV-2" value="" style="rounded=0;html=1;jettySize=auto;orthogonalLoop=1;fontSize=11;endArrow=block;endFill=0;endSize=8;strokeWidth=1;shadow=0;labelBackgroundColor=none;edgeStyle=orthogonalEdgeStyle;" parent="WIyWlLk6GJQsqaUBKTNV-1" source="WIyWlLk6GJQsqaUBKTNV-3" target="WIyWlLk6GJQsqaUBKTNV-6" edge="1">
          <mxGeometry relative="1" as="geometry" />
        </mxCell>
        <mxCell id="WIyWlLk6GJQsqaUBKTNV-3" value="Game" style="rounded=1;whiteSpace=wrap;html=1;fontSize=12;glass=0;strokeWidth=1;shadow=0;" parent="WIyWlLk6GJQsqaUBKTNV-1" vertex="1">
          <mxGeometry x="90" y="70.06" width="120" height="40" as="geometry" />
        </mxCell>
        <mxCell id="WIyWlLk6GJQsqaUBKTNV-4" value="Yes" style="rounded=0;html=1;jettySize=auto;orthogonalLoop=1;fontSize=11;endArrow=block;endFill=0;endSize=8;strokeWidth=1;shadow=0;labelBackgroundColor=none;edgeStyle=orthogonalEdgeStyle;" parent="WIyWlLk6GJQsqaUBKTNV-1" source="WIyWlLk6GJQsqaUBKTNV-6" target="WIyWlLk6GJQsqaUBKTNV-10" edge="1">
          <mxGeometry y="20" relative="1" as="geometry">
            <mxPoint as="offset" />
          </mxGeometry>
        </mxCell>
        <mxCell id="WIyWlLk6GJQsqaUBKTNV-5" value="No" style="edgeStyle=orthogonalEdgeStyle;rounded=0;html=1;jettySize=auto;orthogonalLoop=1;fontSize=11;endArrow=block;endFill=0;endSize=8;strokeWidth=1;shadow=0;labelBackgroundColor=none;entryX=0.5;entryY=0;entryDx=0;entryDy=0;dashed=1;dashPattern=8 8;" parent="WIyWlLk6GJQsqaUBKTNV-1" source="WIyWlLk6GJQsqaUBKTNV-6" target="IA2gcIlMOVvGF8PHRZQm-12" edge="1">
          <mxGeometry y="10" relative="1" as="geometry">
            <mxPoint as="offset" />
            <mxPoint x="250" y="200.05999999999977" as="targetPoint" />
          </mxGeometry>
        </mxCell>
        <mxCell id="WIyWlLk6GJQsqaUBKTNV-6" value="Discarded&lt;div&gt;tile&lt;span style=&quot;background-color: transparent; color: light-dark(rgb(0, 0, 0), rgb(255, 255, 255));&quot;&gt;?&lt;/span&gt;&lt;/div&gt;" style="rhombus;whiteSpace=wrap;html=1;shadow=0;fontFamily=Helvetica;fontSize=12;align=center;strokeWidth=1;spacing=6;spacingTop=-4;" parent="WIyWlLk6GJQsqaUBKTNV-1" vertex="1">
          <mxGeometry x="100" y="160.06" width="100" height="80" as="geometry" />
        </mxCell>
        <mxCell id="WIyWlLk6GJQsqaUBKTNV-8" value="No" style="rounded=0;html=1;jettySize=auto;orthogonalLoop=1;fontSize=11;endArrow=block;endFill=0;endSize=8;strokeWidth=1;shadow=0;labelBackgroundColor=none;edgeStyle=orthogonalEdgeStyle;exitX=0.5;exitY=1;exitDx=0;exitDy=0;entryX=0.5;entryY=0;entryDx=0;entryDy=0;entryPerimeter=0;" parent="WIyWlLk6GJQsqaUBKTNV-1" source="WIyWlLk6GJQsqaUBKTNV-10" target="IA2gcIlMOVvGF8PHRZQm-1" edge="1">
          <mxGeometry x="0.3333" y="20" relative="1" as="geometry">
            <mxPoint as="offset" />
            <mxPoint x="280" y="390.06" as="sourcePoint" />
            <mxPoint x="330" y="450.05999999999995" as="targetPoint" />
          </mxGeometry>
        </mxCell>
        <mxCell id="WIyWlLk6GJQsqaUBKTNV-9" value="Yes" style="edgeStyle=orthogonalEdgeStyle;rounded=0;html=1;jettySize=auto;orthogonalLoop=1;fontSize=11;endArrow=block;endFill=0;endSize=8;strokeWidth=1;shadow=0;labelBackgroundColor=none;" parent="WIyWlLk6GJQsqaUBKTNV-1" source="WIyWlLk6GJQsqaUBKTNV-10" target="WIyWlLk6GJQsqaUBKTNV-12" edge="1">
          <mxGeometry y="10" relative="1" as="geometry">
            <mxPoint as="offset" />
          </mxGeometry>
        </mxCell>
        <mxCell id="WIyWlLk6GJQsqaUBKTNV-10" value="Can hu?" style="rhombus;whiteSpace=wrap;html=1;shadow=0;fontFamily=Helvetica;fontSize=12;align=center;strokeWidth=1;spacing=6;spacingTop=-4;" parent="WIyWlLk6GJQsqaUBKTNV-1" vertex="1">
          <mxGeometry x="100" y="280.06" width="100" height="80" as="geometry" />
        </mxCell>
        <mxCell id="WIyWlLk6GJQsqaUBKTNV-12" value="Hu" style="rounded=1;whiteSpace=wrap;html=1;fontSize=12;glass=0;strokeWidth=1;shadow=0;fillColor=#0050ef;fontColor=#ffffff;strokeColor=#001DBC;" parent="WIyWlLk6GJQsqaUBKTNV-1" vertex="1">
          <mxGeometry x="250" y="300.06" width="120" height="40" as="geometry" />
        </mxCell>
        <mxCell id="IA2gcIlMOVvGF8PHRZQm-1" value="Can gang?" style="strokeWidth=2;html=1;shape=mxgraph.flowchart.decision;whiteSpace=wrap;" parent="WIyWlLk6GJQsqaUBKTNV-1" vertex="1">
          <mxGeometry x="100" y="420.05999999999995" width="100" height="100" as="geometry" />
        </mxCell>
        <mxCell id="IA2gcIlMOVvGF8PHRZQm-3" value="Yes" style="edgeStyle=orthogonalEdgeStyle;rounded=0;html=1;jettySize=auto;orthogonalLoop=1;fontSize=11;endArrow=block;endFill=0;endSize=8;strokeWidth=1;shadow=0;labelBackgroundColor=none;exitX=1;exitY=0.5;exitDx=0;exitDy=0;exitPerimeter=0;entryX=0;entryY=0.5;entryDx=0;entryDy=0;entryPerimeter=0;" parent="WIyWlLk6GJQsqaUBKTNV-1" source="IA2gcIlMOVvGF8PHRZQm-1" target="IA2gcIlMOVvGF8PHRZQm-53" edge="1">
          <mxGeometry y="10" relative="1" as="geometry">
            <mxPoint as="offset" />
            <mxPoint x="420" y="350.06" as="sourcePoint" />
            <mxPoint x="250" y="470.0599999999997" as="targetPoint" />
          </mxGeometry>
        </mxCell>
        <mxCell id="IA2gcIlMOVvGF8PHRZQm-4" value="Can peng?" style="strokeWidth=2;html=1;shape=mxgraph.flowchart.decision;whiteSpace=wrap;" parent="WIyWlLk6GJQsqaUBKTNV-1" vertex="1">
          <mxGeometry x="100" y="580.06" width="100" height="100" as="geometry" />
        </mxCell>
        <mxCell id="IA2gcIlMOVvGF8PHRZQm-5" value="No" style="rounded=0;html=1;jettySize=auto;orthogonalLoop=1;fontSize=11;endArrow=block;endFill=0;endSize=8;strokeWidth=1;shadow=0;labelBackgroundColor=none;edgeStyle=orthogonalEdgeStyle;exitX=0.5;exitY=1;exitDx=0;exitDy=0;entryX=0.5;entryY=0;entryDx=0;entryDy=0;entryPerimeter=0;exitPerimeter=0;" parent="WIyWlLk6GJQsqaUBKTNV-1" source="IA2gcIlMOVvGF8PHRZQm-1" target="IA2gcIlMOVvGF8PHRZQm-4" edge="1">
          <mxGeometry x="0.3333" y="20" relative="1" as="geometry">
            <mxPoint as="offset" />
            <mxPoint x="390" y="520.06" as="sourcePoint" />
            <mxPoint x="390" y="580.06" as="targetPoint" />
          </mxGeometry>
        </mxCell>
        <mxCell id="IA2gcIlMOVvGF8PHRZQm-6" value="Peng" style="rounded=1;whiteSpace=wrap;html=1;fontSize=12;glass=0;strokeWidth=1;shadow=0;" parent="WIyWlLk6GJQsqaUBKTNV-1" vertex="1">
          <mxGeometry x="250" y="610.06" width="120" height="40" as="geometry" />
        </mxCell>
        <mxCell id="IA2gcIlMOVvGF8PHRZQm-7" value="Yes" style="edgeStyle=orthogonalEdgeStyle;rounded=0;html=1;jettySize=auto;orthogonalLoop=1;fontSize=11;endArrow=block;endFill=0;endSize=8;strokeWidth=1;shadow=0;labelBackgroundColor=none;exitX=1;exitY=0.5;exitDx=0;exitDy=0;exitPerimeter=0;entryX=0;entryY=0.5;entryDx=0;entryDy=0;" parent="WIyWlLk6GJQsqaUBKTNV-1" source="IA2gcIlMOVvGF8PHRZQm-4" target="IA2gcIlMOVvGF8PHRZQm-6" edge="1">
          <mxGeometry y="10" relative="1" as="geometry">
            <mxPoint as="offset" />
            <mxPoint x="360" y="530.06" as="sourcePoint" />
            <mxPoint x="410" y="530.06" as="targetPoint" />
          </mxGeometry>
        </mxCell>
        <mxCell id="IA2gcIlMOVvGF8PHRZQm-8" value="Can chi?" style="strokeWidth=2;html=1;shape=mxgraph.flowchart.decision;whiteSpace=wrap;" parent="WIyWlLk6GJQsqaUBKTNV-1" vertex="1">
          <mxGeometry x="100" y="720.06" width="100" height="100" as="geometry" />
        </mxCell>
        <mxCell id="IA2gcIlMOVvGF8PHRZQm-10" value="Chi" style="rounded=1;whiteSpace=wrap;html=1;fontSize=12;glass=0;strokeWidth=1;shadow=0;" parent="WIyWlLk6GJQsqaUBKTNV-1" vertex="1">
          <mxGeometry x="250" y="750.06" width="120" height="40" as="geometry" />
        </mxCell>
        <mxCell id="IA2gcIlMOVvGF8PHRZQm-11" value="Yes" style="edgeStyle=orthogonalEdgeStyle;rounded=0;html=1;jettySize=auto;orthogonalLoop=1;fontSize=11;endArrow=block;endFill=0;endSize=8;strokeWidth=1;shadow=0;labelBackgroundColor=none;exitX=1;exitY=0.5;exitDx=0;exitDy=0;exitPerimeter=0;entryX=0;entryY=0.5;entryDx=0;entryDy=0;" parent="WIyWlLk6GJQsqaUBKTNV-1" source="IA2gcIlMOVvGF8PHRZQm-8" target="IA2gcIlMOVvGF8PHRZQm-10" edge="1">
          <mxGeometry y="10" relative="1" as="geometry">
            <mxPoint as="offset" />
            <mxPoint x="220" y="620.06" as="sourcePoint" />
            <mxPoint x="270" y="620.06" as="targetPoint" />
          </mxGeometry>
        </mxCell>
        <mxCell id="IA2gcIlMOVvGF8PHRZQm-12" value="New tile" style="rounded=1;whiteSpace=wrap;html=1;fontSize=12;glass=0;strokeWidth=1;shadow=0;" parent="WIyWlLk6GJQsqaUBKTNV-1" vertex="1">
          <mxGeometry x="510" y="70.06" width="120" height="40" as="geometry" />
        </mxCell>
        <mxCell id="IA2gcIlMOVvGF8PHRZQm-13" value="Tiles left?" style="rhombus;whiteSpace=wrap;html=1;shadow=0;fontFamily=Helvetica;fontSize=12;align=center;strokeWidth=1;spacing=6;spacingTop=-4;" parent="WIyWlLk6GJQsqaUBKTNV-1" vertex="1">
          <mxGeometry x="520" y="160.06" width="100" height="80" as="geometry" />
        </mxCell>
        <mxCell id="IA2gcIlMOVvGF8PHRZQm-14" value="Draw" style="rounded=1;whiteSpace=wrap;html=1;fontSize=12;glass=0;strokeWidth=1;shadow=0;fillColor=#60a917;fontColor=#ffffff;strokeColor=#2D7600;" parent="WIyWlLk6GJQsqaUBKTNV-1" vertex="1">
          <mxGeometry x="670" y="180.06" width="120" height="40" as="geometry" />
        </mxCell>
        <mxCell id="IA2gcIlMOVvGF8PHRZQm-15" value="No" style="edgeStyle=orthogonalEdgeStyle;rounded=0;html=1;jettySize=auto;orthogonalLoop=1;fontSize=11;endArrow=block;endFill=0;endSize=8;strokeWidth=1;shadow=0;labelBackgroundColor=none;exitX=1;exitY=0.5;exitDx=0;exitDy=0;entryX=0;entryY=0.5;entryDx=0;entryDy=0;" parent="WIyWlLk6GJQsqaUBKTNV-1" source="IA2gcIlMOVvGF8PHRZQm-13" target="IA2gcIlMOVvGF8PHRZQm-14" edge="1">
          <mxGeometry y="10" relative="1" as="geometry">
            <mxPoint as="offset" />
            <mxPoint x="200" y="190.06" as="sourcePoint" />
            <mxPoint x="250" y="190.06" as="targetPoint" />
          </mxGeometry>
        </mxCell>
        <mxCell id="IA2gcIlMOVvGF8PHRZQm-16" value="" style="rounded=0;html=1;jettySize=auto;orthogonalLoop=1;fontSize=11;endArrow=block;endFill=0;endSize=8;strokeWidth=1;shadow=0;labelBackgroundColor=none;edgeStyle=orthogonalEdgeStyle;exitX=0.5;exitY=1;exitDx=0;exitDy=0;entryX=0.5;entryY=0;entryDx=0;entryDy=0;" parent="WIyWlLk6GJQsqaUBKTNV-1" source="IA2gcIlMOVvGF8PHRZQm-12" target="IA2gcIlMOVvGF8PHRZQm-13" edge="1">
          <mxGeometry relative="1" as="geometry">
            <mxPoint x="120" y="130.06" as="sourcePoint" />
            <mxPoint x="120" y="180.06" as="targetPoint" />
          </mxGeometry>
        </mxCell>
        <mxCell id="IA2gcIlMOVvGF8PHRZQm-17" value="Can zimo?" style="rhombus;whiteSpace=wrap;html=1;shadow=0;fontFamily=Helvetica;fontSize=12;align=center;strokeWidth=1;spacing=6;spacingTop=-4;" parent="WIyWlLk6GJQsqaUBKTNV-1" vertex="1">
          <mxGeometry x="520" y="530.06" width="100" height="80" as="geometry" />
        </mxCell>
        <mxCell id="IA2gcIlMOVvGF8PHRZQm-22" value="Yes" style="edgeStyle=orthogonalEdgeStyle;rounded=0;html=1;jettySize=auto;orthogonalLoop=1;fontSize=11;endArrow=block;endFill=0;endSize=8;strokeWidth=1;shadow=0;labelBackgroundColor=none;exitX=0;exitY=0.5;exitDx=0;exitDy=0;entryX=1;entryY=0.5;entryDx=0;entryDy=0;" parent="WIyWlLk6GJQsqaUBKTNV-1" source="IA2gcIlMOVvGF8PHRZQm-17" target="WIyWlLk6GJQsqaUBKTNV-12" edge="1">
          <mxGeometry y="10" relative="1" as="geometry">
            <mxPoint as="offset" />
            <mxPoint x="620" y="640.06" as="sourcePoint" />
            <mxPoint x="840" y="570.06" as="targetPoint" />
          </mxGeometry>
        </mxCell>
        <mxCell id="IA2gcIlMOVvGF8PHRZQm-25" value="No" style="rounded=0;html=1;jettySize=auto;orthogonalLoop=1;fontSize=11;endArrow=block;endFill=0;endSize=8;strokeWidth=1;shadow=0;labelBackgroundColor=none;edgeStyle=orthogonalEdgeStyle;exitX=0.5;exitY=1;exitDx=0;exitDy=0;entryX=1;entryY=0.5;entryDx=0;entryDy=0;" parent="WIyWlLk6GJQsqaUBKTNV-1" source="IA2gcIlMOVvGF8PHRZQm-17" target="IA2gcIlMOVvGF8PHRZQm-60" edge="1">
          <mxGeometry x="0.3333" y="20" relative="1" as="geometry">
            <mxPoint as="offset" />
            <mxPoint x="620" y="550.06" as="sourcePoint" />
            <mxPoint x="710" y="590.06" as="targetPoint" />
          </mxGeometry>
        </mxCell>
        <mxCell id="IA2gcIlMOVvGF8PHRZQm-30" value="Yes" style="rounded=0;html=1;jettySize=auto;orthogonalLoop=1;fontSize=11;endArrow=block;endFill=0;endSize=8;strokeWidth=1;shadow=0;labelBackgroundColor=none;edgeStyle=orthogonalEdgeStyle;exitX=0.5;exitY=1;exitDx=0;exitDy=0;entryX=0.5;entryY=0;entryDx=0;entryDy=0;" parent="WIyWlLk6GJQsqaUBKTNV-1" source="IA2gcIlMOVvGF8PHRZQm-13" target="IA2gcIlMOVvGF8PHRZQm-31" edge="1">
          <mxGeometry y="20" relative="1" as="geometry">
            <mxPoint as="offset" />
            <mxPoint x="530" y="250.06" as="sourcePoint" />
            <mxPoint x="570" y="290.0599999999998" as="targetPoint" />
          </mxGeometry>
        </mxCell>
        <mxCell id="IA2gcIlMOVvGF8PHRZQm-31" value="Take tile" style="rounded=1;whiteSpace=wrap;html=1;fontSize=12;glass=0;strokeWidth=1;shadow=0;" parent="WIyWlLk6GJQsqaUBKTNV-1" vertex="1">
          <mxGeometry x="510" y="300.06" width="120" height="40" as="geometry" />
        </mxCell>
        <mxCell id="IA2gcIlMOVvGF8PHRZQm-32" value="Flower?" style="rhombus;whiteSpace=wrap;html=1;shadow=0;fontFamily=Helvetica;fontSize=12;align=center;strokeWidth=1;spacing=6;spacingTop=-4;" parent="WIyWlLk6GJQsqaUBKTNV-1" vertex="1">
          <mxGeometry x="520" y="390.06" width="100" height="80" as="geometry" />
        </mxCell>
        <mxCell id="IA2gcIlMOVvGF8PHRZQm-35" value="Tiles left?" style="rhombus;whiteSpace=wrap;html=1;shadow=0;fontFamily=Helvetica;fontSize=12;align=center;strokeWidth=1;spacing=6;spacingTop=-4;" parent="WIyWlLk6GJQsqaUBKTNV-1" vertex="1">
          <mxGeometry x="680" y="390.06" width="100" height="80" as="geometry" />
        </mxCell>
        <mxCell id="IA2gcIlMOVvGF8PHRZQm-37" value="" style="rounded=0;html=1;jettySize=auto;orthogonalLoop=1;fontSize=11;endArrow=block;endFill=0;endSize=8;strokeWidth=1;shadow=0;labelBackgroundColor=none;edgeStyle=orthogonalEdgeStyle;exitX=0.5;exitY=1;exitDx=0;exitDy=0;entryX=0.5;entryY=0;entryDx=0;entryDy=0;" parent="WIyWlLk6GJQsqaUBKTNV-1" source="IA2gcIlMOVvGF8PHRZQm-31" target="IA2gcIlMOVvGF8PHRZQm-32" edge="1">
          <mxGeometry relative="1" as="geometry">
            <mxPoint x="500" y="370.06" as="sourcePoint" />
            <mxPoint x="500" y="420.05999999999995" as="targetPoint" />
          </mxGeometry>
        </mxCell>
        <mxCell id="IA2gcIlMOVvGF8PHRZQm-39" value="Yes" style="rounded=0;html=1;jettySize=auto;orthogonalLoop=1;fontSize=11;endArrow=block;endFill=0;endSize=8;strokeWidth=1;shadow=0;labelBackgroundColor=none;edgeStyle=orthogonalEdgeStyle;exitX=1;exitY=0.5;exitDx=0;exitDy=0;entryX=0;entryY=0.5;entryDx=0;entryDy=0;" parent="WIyWlLk6GJQsqaUBKTNV-1" source="IA2gcIlMOVvGF8PHRZQm-32" target="IA2gcIlMOVvGF8PHRZQm-35" edge="1">
          <mxGeometry y="20" relative="1" as="geometry">
            <mxPoint as="offset" />
            <mxPoint x="520" y="480.05999999999995" as="sourcePoint" />
            <mxPoint x="620" y="370.06" as="targetPoint" />
          </mxGeometry>
        </mxCell>
        <mxCell id="IA2gcIlMOVvGF8PHRZQm-40" value="Discard flower" style="rounded=1;whiteSpace=wrap;html=1;fontSize=12;glass=0;strokeWidth=1;shadow=0;" parent="WIyWlLk6GJQsqaUBKTNV-1" vertex="1">
          <mxGeometry x="820" y="410.06" width="120" height="40" as="geometry" />
        </mxCell>
        <mxCell id="IA2gcIlMOVvGF8PHRZQm-41" value="No" style="edgeStyle=orthogonalEdgeStyle;rounded=0;html=1;jettySize=auto;orthogonalLoop=1;fontSize=11;endArrow=block;endFill=0;endSize=8;strokeWidth=1;shadow=0;labelBackgroundColor=none;exitX=1;exitY=0.5;exitDx=0;exitDy=0;entryX=0;entryY=0.5;entryDx=0;entryDy=0;" parent="WIyWlLk6GJQsqaUBKTNV-1" source="IA2gcIlMOVvGF8PHRZQm-35" target="IA2gcIlMOVvGF8PHRZQm-40" edge="1">
          <mxGeometry y="10" relative="1" as="geometry">
            <mxPoint as="offset" />
            <mxPoint x="770" y="570.06" as="sourcePoint" />
            <mxPoint x="770" y="560.06" as="targetPoint" />
          </mxGeometry>
        </mxCell>
        <mxCell id="IA2gcIlMOVvGF8PHRZQm-43" value="" style="rounded=0;html=1;jettySize=auto;orthogonalLoop=1;fontSize=11;endArrow=block;endFill=0;endSize=8;strokeWidth=1;shadow=0;labelBackgroundColor=none;edgeStyle=orthogonalEdgeStyle;exitX=0.5;exitY=0;exitDx=0;exitDy=0;entryX=1;entryY=0.5;entryDx=0;entryDy=0;" parent="WIyWlLk6GJQsqaUBKTNV-1" source="IA2gcIlMOVvGF8PHRZQm-40" target="IA2gcIlMOVvGF8PHRZQm-14" edge="1">
          <mxGeometry relative="1" as="geometry">
            <mxPoint x="850" y="510.06" as="sourcePoint" />
            <mxPoint x="880" y="490.0599999999998" as="targetPoint" />
          </mxGeometry>
        </mxCell>
        <mxCell id="IA2gcIlMOVvGF8PHRZQm-44" value="No" style="edgeStyle=orthogonalEdgeStyle;rounded=0;html=1;jettySize=auto;orthogonalLoop=1;fontSize=11;endArrow=block;endFill=0;endSize=8;strokeWidth=1;shadow=0;labelBackgroundColor=none;exitX=0.5;exitY=1;exitDx=0;exitDy=0;entryX=0.5;entryY=0;entryDx=0;entryDy=0;" parent="WIyWlLk6GJQsqaUBKTNV-1" source="IA2gcIlMOVvGF8PHRZQm-32" target="IA2gcIlMOVvGF8PHRZQm-17" edge="1">
          <mxGeometry y="10" relative="1" as="geometry">
            <mxPoint as="offset" />
            <mxPoint x="520" y="520.06" as="sourcePoint" />
            <mxPoint x="570" y="520.06" as="targetPoint" />
          </mxGeometry>
        </mxCell>
        <mxCell id="IA2gcIlMOVvGF8PHRZQm-45" value="Place flower" style="rounded=1;whiteSpace=wrap;html=1;fontSize=12;glass=0;strokeWidth=1;shadow=0;" parent="WIyWlLk6GJQsqaUBKTNV-1" vertex="1">
          <mxGeometry x="670" y="300.06" width="120" height="40" as="geometry" />
        </mxCell>
        <mxCell id="IA2gcIlMOVvGF8PHRZQm-46" value="Yes" style="rounded=0;html=1;jettySize=auto;orthogonalLoop=1;fontSize=11;endArrow=block;endFill=0;endSize=8;strokeWidth=1;shadow=0;labelBackgroundColor=none;edgeStyle=orthogonalEdgeStyle;exitX=0.5;exitY=0;exitDx=0;exitDy=0;entryX=0.5;entryY=1;entryDx=0;entryDy=0;" parent="WIyWlLk6GJQsqaUBKTNV-1" source="IA2gcIlMOVvGF8PHRZQm-35" target="IA2gcIlMOVvGF8PHRZQm-45" edge="1">
          <mxGeometry y="20" relative="1" as="geometry">
            <mxPoint as="offset" />
            <mxPoint x="740" y="360.06" as="sourcePoint" />
            <mxPoint x="800" y="360.06" as="targetPoint" />
          </mxGeometry>
        </mxCell>
        <mxCell id="IA2gcIlMOVvGF8PHRZQm-48" value="" style="rounded=0;html=1;jettySize=auto;orthogonalLoop=1;fontSize=11;endArrow=block;endFill=0;endSize=8;strokeWidth=1;shadow=0;labelBackgroundColor=none;edgeStyle=orthogonalEdgeStyle;exitX=0;exitY=0.5;exitDx=0;exitDy=0;entryX=1;entryY=0.5;entryDx=0;entryDy=0;" parent="WIyWlLk6GJQsqaUBKTNV-1" source="IA2gcIlMOVvGF8PHRZQm-45" target="IA2gcIlMOVvGF8PHRZQm-31" edge="1">
          <mxGeometry relative="1" as="geometry">
            <mxPoint x="680" y="270.06" as="sourcePoint" />
            <mxPoint x="680" y="320.06" as="targetPoint" />
          </mxGeometry>
        </mxCell>
        <mxCell id="IA2gcIlMOVvGF8PHRZQm-53" value="Can&lt;div&gt;qianggang?&lt;/div&gt;" style="strokeWidth=2;html=1;shape=mxgraph.flowchart.decision;whiteSpace=wrap;" parent="WIyWlLk6GJQsqaUBKTNV-1" vertex="1">
          <mxGeometry x="260" y="420.05999999999995" width="100" height="100" as="geometry" />
        </mxCell>
        <mxCell id="IA2gcIlMOVvGF8PHRZQm-56" value="Yes" style="edgeStyle=orthogonalEdgeStyle;rounded=0;html=1;jettySize=auto;orthogonalLoop=1;fontSize=11;endArrow=block;endFill=0;endSize=8;strokeWidth=1;shadow=0;labelBackgroundColor=none;exitX=0.5;exitY=0;exitDx=0;exitDy=0;exitPerimeter=0;entryX=0.5;entryY=1;entryDx=0;entryDy=0;" parent="WIyWlLk6GJQsqaUBKTNV-1" source="IA2gcIlMOVvGF8PHRZQm-53" target="WIyWlLk6GJQsqaUBKTNV-12" edge="1">
          <mxGeometry y="10" relative="1" as="geometry">
            <mxPoint as="offset" />
            <mxPoint x="450" y="390.06" as="sourcePoint" />
            <mxPoint x="410" y="470.0599999999997" as="targetPoint" />
          </mxGeometry>
        </mxCell>
        <mxCell id="IA2gcIlMOVvGF8PHRZQm-58" value="No" style="rounded=0;html=1;jettySize=auto;orthogonalLoop=1;fontSize=11;endArrow=block;endFill=0;endSize=8;strokeWidth=1;shadow=0;labelBackgroundColor=none;edgeStyle=orthogonalEdgeStyle;exitX=1;exitY=0.5;exitDx=0;exitDy=0;exitPerimeter=0;entryX=0;entryY=0.5;entryDx=0;entryDy=0;dashed=1;dashPattern=8 8;" parent="WIyWlLk6GJQsqaUBKTNV-1" source="IA2gcIlMOVvGF8PHRZQm-53" target="IA2gcIlMOVvGF8PHRZQm-12" edge="1">
          <mxGeometry x="0.3333" y="20" relative="1" as="geometry">
            <mxPoint as="offset" />
            <mxPoint x="240" y="650.06" as="sourcePoint" />
            <mxPoint x="560" y="120.06" as="targetPoint" />
            <Array as="points">
              <mxPoint x="410" y="470.05999999999995" />
              <mxPoint x="410" y="90.06" />
            </Array>
          </mxGeometry>
        </mxCell>
        <mxCell id="IA2gcIlMOVvGF8PHRZQm-60" value="Discard tile" style="rounded=1;whiteSpace=wrap;html=1;fontSize=12;glass=0;strokeWidth=1;shadow=0;" parent="WIyWlLk6GJQsqaUBKTNV-1" vertex="1">
          <mxGeometry x="420" y="750.06" width="120" height="40" as="geometry" />
        </mxCell>
        <mxCell id="IA2gcIlMOVvGF8PHRZQm-61" value="" style="rounded=0;html=1;jettySize=auto;orthogonalLoop=1;fontSize=11;endArrow=block;endFill=0;endSize=8;strokeWidth=1;shadow=0;labelBackgroundColor=none;edgeStyle=orthogonalEdgeStyle;exitX=1;exitY=0.5;exitDx=0;exitDy=0;entryX=0.5;entryY=0;entryDx=0;entryDy=0;" parent="WIyWlLk6GJQsqaUBKTNV-1" source="IA2gcIlMOVvGF8PHRZQm-6" target="IA2gcIlMOVvGF8PHRZQm-60" edge="1">
          <mxGeometry relative="1" as="geometry">
            <mxPoint x="320" y="550.06" as="sourcePoint" />
            <mxPoint x="410" y="630.06" as="targetPoint" />
          </mxGeometry>
        </mxCell>
        <mxCell id="IA2gcIlMOVvGF8PHRZQm-62" value="" style="rounded=0;html=1;jettySize=auto;orthogonalLoop=1;fontSize=11;endArrow=block;endFill=0;endSize=8;strokeWidth=1;shadow=0;labelBackgroundColor=none;edgeStyle=orthogonalEdgeStyle;exitX=1;exitY=0.5;exitDx=0;exitDy=0;entryX=0;entryY=0.5;entryDx=0;entryDy=0;" parent="WIyWlLk6GJQsqaUBKTNV-1" source="IA2gcIlMOVvGF8PHRZQm-10" target="IA2gcIlMOVvGF8PHRZQm-60" edge="1">
          <mxGeometry relative="1" as="geometry">
            <mxPoint x="310" y="700.06" as="sourcePoint" />
            <mxPoint x="310" y="750.06" as="targetPoint" />
          </mxGeometry>
        </mxCell>
        <mxCell id="IA2gcIlMOVvGF8PHRZQm-63" value="Place tile on floor" style="rounded=1;whiteSpace=wrap;html=1;fontSize=12;glass=0;strokeWidth=1;shadow=0;" parent="WIyWlLk6GJQsqaUBKTNV-1" vertex="1">
          <mxGeometry x="90" y="860.06" width="120" height="40" as="geometry" />
        </mxCell>
        <mxCell id="IA2gcIlMOVvGF8PHRZQm-67" value="No" style="rounded=0;html=1;jettySize=auto;orthogonalLoop=1;fontSize=11;endArrow=block;endFill=0;endSize=8;strokeWidth=1;shadow=0;labelBackgroundColor=none;edgeStyle=orthogonalEdgeStyle;exitX=0.5;exitY=1;exitDx=0;exitDy=0;entryX=0.5;entryY=0;entryDx=0;entryDy=0;exitPerimeter=0;" parent="WIyWlLk6GJQsqaUBKTNV-1" source="IA2gcIlMOVvGF8PHRZQm-8" target="IA2gcIlMOVvGF8PHRZQm-63" edge="1">
          <mxGeometry x="0.3333" y="20" relative="1" as="geometry">
            <mxPoint as="offset" />
            <mxPoint x="270" y="810.06" as="sourcePoint" />
            <mxPoint x="270" y="850.06" as="targetPoint" />
          </mxGeometry>
        </mxCell>
        <mxCell id="IA2gcIlMOVvGF8PHRZQm-68" value="No" style="rounded=0;html=1;jettySize=auto;orthogonalLoop=1;fontSize=11;endArrow=block;endFill=0;endSize=8;strokeWidth=1;shadow=0;labelBackgroundColor=none;edgeStyle=orthogonalEdgeStyle;exitX=0.5;exitY=1;exitDx=0;exitDy=0;exitPerimeter=0;entryX=0.5;entryY=0;entryDx=0;entryDy=0;entryPerimeter=0;" parent="WIyWlLk6GJQsqaUBKTNV-1" source="IA2gcIlMOVvGF8PHRZQm-4" target="IA2gcIlMOVvGF8PHRZQm-8" edge="1">
          <mxGeometry x="0.3333" y="20" relative="1" as="geometry">
            <mxPoint as="offset" />
            <mxPoint x="150" y="690.06" as="sourcePoint" />
            <mxPoint x="260" y="680.06" as="targetPoint" />
          </mxGeometry>
        </mxCell>
        <mxCell id="IA2gcIlMOVvGF8PHRZQm-70" value="" style="rounded=0;html=1;jettySize=auto;orthogonalLoop=1;fontSize=11;endArrow=block;endFill=0;endSize=8;strokeWidth=1;shadow=0;labelBackgroundColor=none;edgeStyle=orthogonalEdgeStyle;exitX=1;exitY=0.5;exitDx=0;exitDy=0;entryX=1;entryY=0.5;entryDx=0;entryDy=0;dashed=1;dashPattern=8 8;" parent="WIyWlLk6GJQsqaUBKTNV-1" source="IA2gcIlMOVvGF8PHRZQm-63" target="IA2gcIlMOVvGF8PHRZQm-12" edge="1">
          <mxGeometry relative="1" as="geometry">
            <mxPoint x="430" y="930.06" as="sourcePoint" />
            <mxPoint x="1050" y="100.06" as="targetPoint" />
            <Array as="points">
              <mxPoint x="970" y="880.06" />
              <mxPoint x="970" y="90.06" />
            </Array>
          </mxGeometry>
        </mxCell>
        <mxCell id="IA2gcIlMOVvGF8PHRZQm-85" value="" style="rounded=0;html=1;jettySize=auto;orthogonalLoop=1;fontSize=11;endArrow=block;endFill=0;endSize=8;strokeWidth=1;shadow=0;labelBackgroundColor=none;edgeStyle=orthogonalEdgeStyle;exitX=0.5;exitY=1;exitDx=0;exitDy=0;fillColor=#e3c800;strokeColor=#B09500;entryX=0;entryY=0.5;entryDx=0;entryDy=0;" parent="WIyWlLk6GJQsqaUBKTNV-1" source="IA2gcIlMOVvGF8PHRZQm-60" target="WIyWlLk6GJQsqaUBKTNV-6" edge="1">
          <mxGeometry relative="1" as="geometry">
            <mxPoint x="590" y="950.06" as="sourcePoint" />
            <mxPoint x="30" y="280.06" as="targetPoint" />
            <Array as="points">
              <mxPoint x="480" y="940" />
              <mxPoint x="40" y="940" />
              <mxPoint x="40" y="200" />
            </Array>
          </mxGeometry>
        </mxCell>
      </root>
    </mxGraphModel>
  </diagram>
</mxfile>
